<svg width="300" height="251" viewBox="0 0 300 251" fill="none" xmlns="http://www.w3.org/2000/svg">
<g clip-path="url(#clip0_63487_457)">
<path d="M13.9402 238.64C18.1015 246.357 26.9333 249.67 26.9333 249.67C26.9333 249.67 29.0183 240.471 24.857 232.753C20.6957 225.036 11.8639 221.723 11.8639 221.723C11.8639 221.723 9.77891 230.923 13.9402 238.64Z" fill="#2F2E41"/>
<path d="M16.8002 236.101C24.313 240.621 27.2065 249.599 27.2065 249.599C27.2065 249.599 17.9192 251.249 10.4063 246.729C2.89344 242.209 0 233.231 0 233.231C0 233.231 9.28731 231.581 16.8002 236.101Z" fill="#fe5f1e"/>
<path d="M185.239 12.0227H138.364V12.6924H185.239V12.0227Z" fill="#F2F2F2"/>
<path d="M172.516 12.525H171.847V18.7192H172.516V12.525Z" fill="#F2F2F2"/>
<path d="M152.092 12.525H151.422V18.7192H152.092V12.525Z" fill="#F2F2F2"/>
<path d="M209.012 44.1655H162.137V44.8351H209.012V44.1655Z" fill="#F2F2F2"/>
<path d="M175.529 38.1389H174.86V44.3331H175.529V38.1389Z" fill="#F2F2F2"/>
<path d="M195.954 38.1389H195.284V44.3331H195.954V38.1389Z" fill="#F2F2F2"/>
<path d="M271.289 59.2325H224.414V59.9022H271.289V59.2325Z" fill="#F2F2F2"/>
<path d="M237.807 53.2058H237.137V59.4H237.807V53.2058Z" fill="#F2F2F2"/>
<path d="M258.23 53.2058H257.561V59.4H258.23V53.2058Z" fill="#F2F2F2"/>
<path d="M266.601 214.59H219.726V215.259H266.601V214.59Z" fill="#F2F2F2"/>
<path d="M233.119 208.563H232.449V214.757H233.119V208.563Z" fill="#F2F2F2"/>
<path d="M253.543 208.563H252.873V214.757H253.543V208.563Z" fill="#F2F2F2"/>
<path d="M186.579 107.112H139.704V107.782H186.579V107.112Z" fill="#F2F2F2"/>
<path d="M153.096 101.085H152.427V107.279H153.096V101.085Z" fill="#F2F2F2"/>
<path d="M173.521 101.085H172.851V107.279H173.521V101.085Z" fill="#F2F2F2"/>
<path d="M201.311 187.804H154.436V188.474H201.311V187.804Z" fill="#F2F2F2"/>
<path d="M167.829 181.777H167.159V187.971H167.829V181.777Z" fill="#F2F2F2"/>
<path d="M188.253 181.777H187.583V187.971H188.253V181.777Z" fill="#F2F2F2"/>
<path d="M276.311 163.362H229.436V164.032H276.311V163.362Z" fill="#F2F2F2"/>
<path d="M242.829 157.335H242.159V163.529H242.829V157.335Z" fill="#F2F2F2"/>
<path d="M263.253 157.335H262.583V163.529H263.253V157.335Z" fill="#F2F2F2"/>
<path d="M121.225 235.106H41.9443V234.536H120.655V206.873H48.6093L45.1094 199.582L45.6237 199.335L48.9682 206.303H121.225V235.106Z" fill="#2F2E41"/>
<path d="M52.4964 249.08C55.804 249.08 58.4853 246.399 58.4853 243.091C58.4853 239.784 55.804 237.103 52.4964 237.103C49.1889 237.103 46.5076 239.784 46.5076 243.091C46.5076 246.399 49.1889 249.08 52.4964 249.08Z" fill="#3F3D56"/>
<path d="M111.529 249.08C114.837 249.08 117.518 246.399 117.518 243.091C117.518 239.784 114.837 237.103 111.529 237.103C108.222 237.103 105.541 239.784 105.541 243.091C105.541 246.399 108.222 249.08 111.529 249.08Z" fill="#3F3D56"/>
<path d="M181.114 119.607C183.161 119.607 184.821 117.947 184.821 115.899C184.821 113.852 183.161 112.192 181.114 112.192C179.066 112.192 177.406 113.852 177.406 115.899C177.406 117.947 179.066 119.607 181.114 119.607Z" fill="#3F3D56"/>
<path d="M129.705 197.462H40.5926L21.3108 134.436H149.562L149.445 134.807L129.705 197.462ZM41.0145 196.892H129.287L148.785 135.007H22.0817L41.0145 196.892Z" fill="#2F2E41"/>
<path d="M122.749 194.182H44.4782L27.5422 138.286H140.19L140.087 138.615L122.749 194.182Z" fill="#F2F2F2"/>
<path d="M151.16 128.806L150.609 128.659L154.372 114.473H176.266V115.044H154.811L151.16 128.806Z" fill="#2F2E41"/>
<path d="M143.153 153.544H27.5417V154.114H143.153V153.544Z" fill="#2F2E41"/>
<path d="M136.533 174.557H33.9707V175.127H136.533V174.557Z" fill="#2F2E41"/>
<path d="M85.72 134.722H85.1497V197.177H85.72V134.722Z" fill="#2F2E41"/>
<path d="M111.256 134.704L107.162 197.157L107.731 197.195L111.826 134.741L111.256 134.704Z" fill="#2F2E41"/>
<path d="M59.6249 134.703L59.0557 134.74L63.1262 197.195L63.6955 197.158L59.6249 134.703Z" fill="#2F2E41"/>
<path d="M300 249.442H0V250.112H300V249.442Z" fill="#2F2E41"/>
<path d="M199.356 20.7174C199.356 20.7174 204.251 34.6481 201.239 36.7913C198.227 38.9345 211.404 56.4371 211.404 56.4371L227.218 52.1507L218.558 37.5057C218.558 37.5057 217.428 22.8606 217.428 20.7174C217.428 18.5742 199.356 20.7174 199.356 20.7174Z" fill="#EBAA8C"/>
<path opacity="0.1" d="M199.356 20.7174C199.356 20.7174 204.251 34.6481 201.239 36.7913C198.227 38.9345 211.404 56.4371 211.404 56.4371L227.218 52.1507L218.558 37.5057C218.558 37.5057 217.428 22.8606 217.428 20.7174C217.428 18.5742 199.356 20.7174 199.356 20.7174Z" fill="black"/>
<path d="M191.141 120.018C191.141 120.018 189.712 137.878 191.141 147.165C192.569 156.452 194.713 182.17 194.713 182.17C194.713 182.17 194.713 230.749 202.571 231.463C210.429 232.178 216.144 232.892 216.859 230.035C217.573 227.177 213.287 225.748 215.43 224.32C217.573 222.891 218.288 217.89 215.43 212.175C212.572 206.46 215.43 148.594 215.43 148.594L229.003 185.028C229.003 185.028 230.432 215.032 231.861 219.319C233.29 223.605 230.432 231.463 235.433 232.178C240.434 232.892 246.149 228.606 249.006 227.177C251.864 225.748 244.72 225.748 246.149 225.034C247.578 224.319 251.864 222.176 250.435 221.462C249.006 220.748 247.578 186.457 247.578 186.457C247.578 186.457 243.649 113.231 238.648 110.374C233.647 107.516 230.432 112.438 230.432 112.438L191.141 120.018Z" fill="#2F2E41"/>
<path d="M203.999 228.606V234.321C203.999 234.321 197.57 249.857 203.999 249.857C210.429 249.857 215.43 251.466 215.43 249.323V230.035L203.999 228.606Z" fill="#2F2E41"/>
<path d="M246.149 228.596V234.311C246.149 234.311 252.579 249.846 246.149 249.846C239.72 249.846 234.719 251.456 234.719 249.313V230.025L246.149 228.596Z" fill="#2F2E41"/>
<path d="M209.358 31.0762C216.46 31.0762 222.217 25.319 222.217 18.2171C222.217 11.1152 216.46 5.35801 209.358 5.35801C202.256 5.35801 196.499 11.1152 196.499 18.2171C196.499 25.319 202.256 31.0762 209.358 31.0762Z" fill="#EBAA8C"/>
<path d="M205.429 42.1492C205.429 42.1492 209.001 52.8651 214.716 50.7219L220.431 48.5787L230.433 117.16C230.433 117.16 222.574 128.591 211.144 121.447C199.714 114.303 205.429 42.1492 205.429 42.1492Z" fill="#fe5f1e"/>
<path d="M215.43 40.006L218.645 33.2193C218.645 33.2193 237.577 42.1492 240.434 45.0068C243.292 47.8643 243.292 52.1507 243.292 52.1507L238.291 70.0105C238.291 70.0105 239.72 109.302 239.72 110.731C239.72 112.16 244.721 120.018 241.149 117.161C237.577 114.303 236.862 111.445 234.005 115.732C231.147 120.018 224.718 125.019 224.718 125.019L215.43 40.006Z" fill="#3F3D56"/>
<path d="M240.434 91.4424L238.291 111.445C238.291 111.445 225.432 122.876 228.289 123.59C231.147 124.304 232.575 121.447 232.575 121.447C232.575 121.447 237.576 126.448 240.434 123.59C243.291 120.733 250.435 93.5855 250.435 93.5855L240.434 91.4424Z" fill="#EBAA8C"/>
<path d="M209.632 0.0434836C206.781 -0.058426 203.731 -0.108837 201.327 1.42737C200.221 2.19833 199.251 3.14784 198.457 4.23704C196.116 7.19634 194.093 10.9198 194.963 14.5915L195.973 14.1976C195.973 15.1777 195.755 16.1455 195.335 17.0311C195.477 16.6176 195.953 17.2861 195.826 17.7044L194.713 21.3541C196.542 20.6837 198.817 22.0412 199.096 23.969C199.223 19.7297 199.663 14.8687 203.101 12.3864C204.836 11.1346 207.03 10.7525 209.142 10.4131C211.09 10.1001 213.132 9.80156 214.998 10.4429C216.864 11.0842 218.453 12.9926 218.03 14.9198C218.891 14.6234 219.853 15.223 220.278 16.0275C220.703 16.8321 220.726 17.7812 220.738 18.6911C221.656 19.3392 222.699 18.0522 223.073 16.9932C223.95 14.5073 224.73 11.8612 224.258 9.26782C223.785 6.67442 221.672 4.19603 219.036 4.18724C219.356 3.83579 219.526 3.37366 219.512 2.8986L217.339 2.71501C217.89 2.63691 218.398 2.36946 218.774 1.95847C217.901 2.91838 211.043 0.0939111 209.632 0.0434836Z" fill="#2F2E41"/>
<path d="M209.001 37.8629C209.001 37.8629 203.185 32.1639 201.092 32.513C198.999 32.8621 196.141 37.8629 196.141 37.8629C196.141 37.8629 178.996 43.578 179.71 49.2932C180.425 55.0083 188.283 82.8696 188.283 82.8696C188.283 82.8696 194.713 116.446 188.998 120.018C183.282 123.59 216.144 132.877 216.859 128.591C217.573 124.304 219.002 81.4409 216.859 75.0113C214.716 68.5818 209.001 37.8629 209.001 37.8629Z" fill="#3F3D56"/>
<path d="M234.004 49.2931H242.838C242.838 49.2931 249.006 76.44 249.721 79.2976C250.435 82.1552 251.864 95.7286 251.15 95.7286C250.435 95.7286 236.147 92.8711 236.147 95.0142L234.004 49.2931Z" fill="#3F3D56"/>
<path d="M233.705 116.518H199.888C196.588 101.337 196.313 86.6697 199.888 72.6562H233.705C228.248 86.4176 227.907 100.984 233.705 116.518Z" fill="#F2F2F2"/>
<path d="M186.14 97.872L196.141 102.158C196.141 102.158 215.43 105.016 215.43 97.1576C215.43 89.2993 196.141 93.5856 196.141 93.5856L189.711 91.5298L186.14 97.872Z" fill="#EBAA8C"/>
<path d="M188.283 45.0068L179.71 47.15L173.281 85.0128C173.281 85.0128 171.138 95.0143 174.71 95.7287C178.282 96.4431 188.283 102.158 188.283 102.158C188.283 102.158 189.712 91.4423 192.57 91.4423L185.426 85.7272L189.712 60.7234L188.283 45.0068Z" fill="#3F3D56"/>
<path d="M67.0474 118.161H20.1724V118.831H67.0474V118.161Z" fill="#F2F2F2"/>
<path d="M33.5654 112.134H32.8958V118.329H33.5654V112.134Z" fill="#F2F2F2"/>
<path d="M53.9897 112.134H53.3201V118.329H53.9897V112.134Z" fill="#F2F2F2"/>
<path d="M83.4541 19.0539H36.5791V19.7235H83.4541V19.0539Z" fill="#F2F2F2"/>
<path d="M70.7302 19.5562H70.0605V25.7504H70.7302V19.5562Z" fill="#F2F2F2"/>
<path d="M50.3064 19.5562H49.6367V25.7504H50.3064V19.5562Z" fill="#F2F2F2"/>
<path d="M130.663 85.0138H83.7883V85.6834H130.663V85.0138Z" fill="#F2F2F2"/>
<path d="M117.941 85.516H117.271V91.7102H117.941V85.516Z" fill="#F2F2F2"/>
<path d="M97.5163 85.516H96.8467V91.7102H97.5163V85.516Z" fill="#F2F2F2"/>
<path d="M50.9761 84.679H4.10107V85.3486H50.9761V84.679Z" fill="#F2F2F2"/>
<path d="M38.2529 85.1812H37.5833V91.3754H38.2529V85.1812Z" fill="#F2F2F2"/>
<path d="M17.8286 85.1812H17.1589V91.3754H17.8286V85.1812Z" fill="#F2F2F2"/>
<path d="M107.226 51.1968H60.3511V51.8665H107.226V51.1968Z" fill="#F2F2F2"/>
<path d="M73.7441 45.17H73.0745V51.3642H73.7441V45.17Z" fill="#F2F2F2"/>
<path d="M94.1679 45.17H93.4983V51.3642H94.1679V45.17Z" fill="#F2F2F2"/>
</g>
<defs>
<clipPath id="clip0_63487_457">
<rect width="300" height="250.437" fill="white"/>
</clipPath>
</defs>
</svg>
