<svg width="300" height="330" viewBox="0 0 300 330" fill="none" xmlns="http://www.w3.org/2000/svg">
<g clip-path="url(#clip0_63487_524)">
<path d="M208.318 66.8239C187.522 63.5051 163.839 61.7342 139.176 61.7342C116.604 61.7342 94.8582 63.2152 75.396 66.0076C75.4006 65.7087 75.4049 65.4099 75.4182 65.111C75.9342 47.7629 83.2154 31.3048 95.7058 19.2544C108.196 7.2039 124.905 0.517078 142.26 0.623106C159.615 0.729134 176.241 7.6196 188.583 19.8218C200.925 32.0239 208.005 48.5698 208.309 65.9228C208.313 66.2262 208.318 66.525 208.318 66.8239Z" fill="#fe5f1e"/>
<g opacity="0.1">
<path d="M150.573 0.59833C141.342 -0.648478 131.953 0.058176 123.013 2.67249C114.073 5.28681 105.782 9.75044 98.6769 15.7741C91.5723 21.7978 85.8126 29.247 81.7712 37.6391C77.7298 46.0312 75.4969 55.1789 75.217 64.4892C75.2035 64.788 75.1992 65.0869 75.1948 65.3858C80.9768 64.5562 86.9644 63.8453 93.1115 63.2516C93.8633 47.7411 100.022 32.9832 110.518 21.5387C121.014 10.0943 135.185 2.68566 150.573 0.59833V0.59833Z" fill="white"/>
</g>
<path d="M237.393 72.0966C227.82 69.5015 218.11 67.4404 208.308 65.9229C192.243 63.4334 176.047 61.877 159.802 61.2614C153.035 60.9848 146.143 60.8421 139.176 60.8421C133.653 60.8421 128.175 60.9313 122.773 61.1097C106.927 61.5779 91.1182 62.9137 75.4179 65.111C63.7958 66.7114 52.2864 69.0446 40.9586 72.0966C14.5465 79.3989 0 89.1857 0 99.6507C0 110.116 14.5465 119.903 40.9586 127.205C59.5332 132.344 82.4347 135.845 107.388 137.451C117.688 138.12 128.336 138.459 139.176 138.459C150.051 138.459 160.734 138.116 171.066 137.447C193.775 135.979 214.785 132.941 232.37 128.525C232.463 128.498 232.553 128.476 232.646 128.454C233.833 128.159 235.002 127.852 236.157 127.544C236.572 127.428 236.982 127.316 237.393 127.205C237.416 127.195 237.44 127.188 237.464 127.182C237.857 127.075 238.245 126.964 238.633 126.857C239.409 126.634 240.176 126.415 240.93 126.188C240.966 126.179 240.997 126.17 241.028 126.161C241.684 125.965 242.326 125.768 242.964 125.572C243.486 125.407 244.003 125.247 244.516 125.081C244.891 124.961 245.262 124.841 245.627 124.72C245.895 124.631 246.158 124.546 246.417 124.457C246.769 124.341 247.122 124.221 247.469 124.1C247.617 124.051 247.764 124.002 247.907 123.948C248.241 123.837 248.567 123.721 248.892 123.605C249.245 123.48 249.597 123.351 249.945 123.226C250.235 123.123 250.525 123.016 250.81 122.909C251.051 122.815 251.288 122.726 251.529 122.637C252.184 122.392 252.827 122.137 253.46 121.888C253.777 121.758 254.094 121.633 254.406 121.504C254.714 121.379 255.026 121.25 255.329 121.12C255.829 120.911 256.319 120.701 256.801 120.491C257.033 120.384 257.27 120.282 257.497 120.184C257.671 120.103 257.841 120.027 258.015 119.947C258.14 119.894 258.265 119.836 258.385 119.778C258.835 119.572 259.282 119.363 259.719 119.153C261.396 118.35 262.962 117.529 264.416 116.691C273.538 111.467 278.351 105.673 278.351 99.6507C278.351 89.1857 263.805 79.3989 237.393 72.0966ZM237.152 126.348C218.555 131.492 195.591 134.993 170.57 136.586C160.395 137.233 149.877 137.567 139.176 137.567C128.51 137.567 118.027 137.237 107.883 136.59C82.8228 135.002 59.8232 131.5 41.1995 126.348C15.2067 119.158 0.892151 109.678 0.892151 99.6507C0.893604 98.7646 1.00451 97.8822 1.22235 97.0233C3.49716 87.9769 17.4906 79.5104 41.1995 72.9531C52.4417 69.9248 63.8629 67.6051 75.3957 66.0077C91.1905 63.7979 107.095 62.4576 123.037 61.993C128.354 61.819 133.734 61.7328 139.176 61.7343C146.05 61.7343 152.848 61.8725 159.53 62.1402C175.87 62.7503 192.16 64.3142 208.317 66.824C218.034 68.3347 227.66 70.3809 237.152 72.9531C260.856 79.5104 274.845 87.9724 277.125 97.0144C277.346 97.8757 277.458 98.7614 277.459 99.6507C277.459 109.678 263.145 119.158 237.152 126.348V126.348Z" fill="#3F3D56"/>
<path d="M278.097 100.057C278.097 106.016 273.185 111.655 264.415 116.691C262.957 117.529 261.387 118.35 259.718 119.153C259.281 119.363 258.835 119.572 258.385 119.778C258.264 119.836 258.139 119.894 258.014 119.947C257.84 120.027 257.671 120.103 257.497 120.184C257.27 120.282 257.033 120.384 256.801 120.491C256.319 120.701 255.829 120.911 255.329 121.12C255.026 121.25 254.713 121.379 254.406 121.504C254.093 121.633 253.777 121.758 253.46 121.888C252.827 122.137 252.184 122.392 251.529 122.637C251.288 122.726 251.051 122.815 250.81 122.909C250.525 123.016 250.235 123.123 249.945 123.226C249.597 123.351 249.245 123.48 248.892 123.605C248.566 123.721 248.241 123.837 247.906 123.948C247.764 124.002 247.616 124.051 247.469 124.1C247.121 124.221 246.769 124.341 246.416 124.457C246.158 124.546 245.895 124.631 245.627 124.72C245.261 124.841 244.891 124.961 244.516 125.081C244.003 125.246 243.486 125.407 242.964 125.572C242.326 125.768 241.683 125.965 241.028 126.161C240.997 126.17 240.965 126.179 240.93 126.188C240.176 126.415 239.409 126.634 238.632 126.857C238.244 126.964 237.856 127.075 237.464 127.182C237.439 127.188 237.415 127.195 237.392 127.205C236.982 127.316 236.571 127.428 236.157 127.544C235.006 127.847 233.833 128.155 232.646 128.454C232.552 128.476 232.463 128.498 232.369 128.525C215.262 132.799 194.275 135.912 171.048 137.415C160.873 138.071 150.265 138.419 139.367 138.419C128.372 138.419 117.674 138.067 107.419 137.398C46.1997 133.405 0.637695 118.203 0.637695 100.057C0.642515 98.9524 0.81082 97.8551 1.13713 96.8002C1.16393 96.8761 1.19071 96.9475 1.22208 97.0233C7.58737 113.742 52.7617 127.254 111.376 130.55C120.355 131.059 129.656 131.322 139.175 131.322C148.735 131.322 158.071 131.054 167.086 130.546C225.652 127.236 270.781 113.72 277.124 97.0144C277.231 96.7467 277.325 96.4791 277.405 96.2114C277.858 97.4432 278.092 98.7444 278.097 100.057V100.057Z" fill="#3F3D56"/>
<path d="M40.8912 95.2551C33.4673 95.2551 25.5771 93.6579 25.5771 90.6976C25.5771 87.7374 33.4673 86.1402 40.8912 86.1402C48.3151 86.1402 56.2053 87.7374 56.2053 90.6976C56.2053 93.6579 48.3151 95.2551 40.8912 95.2551ZM40.8912 87.0323C32.3922 87.0323 26.4693 88.9641 26.4693 90.6976C26.4693 92.4312 32.3922 94.3629 40.8912 94.3629C49.3903 94.3629 55.3132 92.4312 55.3132 90.6976C55.3132 88.9641 49.3903 87.0323 40.8912 87.0323V87.0323Z" fill="#3F3D56"/>
<path d="M72.5626 116.221C65.1387 116.221 57.2485 114.623 57.2485 111.663C57.2485 108.703 65.1387 107.106 72.5626 107.106C79.9865 107.106 87.8767 108.703 87.8767 111.663C87.8767 114.623 79.9865 116.221 72.5626 116.221ZM72.5626 107.998C64.0635 107.998 58.1407 109.93 58.1407 111.663C58.1407 113.397 64.0635 115.328 72.5626 115.328C81.0616 115.328 86.9846 113.397 86.9846 111.663C86.9846 109.93 81.0616 107.998 72.5626 107.998V107.998Z" fill="#3F3D56"/>
<path d="M237.165 95.2551C229.741 95.2551 221.851 93.6579 221.851 90.6976C221.851 87.7374 229.741 86.1402 237.165 86.1402C244.589 86.1402 252.479 87.7374 252.479 90.6976C252.479 93.6579 244.589 95.2551 237.165 95.2551ZM237.165 87.0323C228.666 87.0323 222.743 88.9641 222.743 90.6976C222.743 92.4312 228.666 94.3629 237.165 94.3629C245.664 94.3629 251.587 92.4312 251.587 90.6976C251.587 88.9641 245.664 87.0323 237.165 87.0323V87.0323Z" fill="#3F3D56"/>
<path d="M205.493 116.221C198.069 116.221 190.179 114.623 190.179 111.663C190.179 108.703 198.069 107.106 205.493 107.106C212.917 107.106 220.807 108.703 220.807 111.663C220.807 114.623 212.917 116.221 205.493 116.221ZM205.493 107.998C196.994 107.998 191.071 109.93 191.071 111.663C191.071 113.397 196.994 115.328 205.493 115.328C213.992 115.328 219.915 113.397 219.915 111.663C219.915 109.93 213.992 107.998 205.493 107.998V107.998Z" fill="#3F3D56"/>
<path d="M139.028 126.034C131.604 126.034 123.714 124.437 123.714 121.477C123.714 118.517 131.604 116.919 139.028 116.919C146.452 116.919 154.342 118.517 154.342 121.477C154.342 124.437 146.452 126.034 139.028 126.034ZM139.028 117.811C130.529 117.811 124.606 119.743 124.606 121.477C124.606 123.21 130.529 125.142 139.028 125.142C147.527 125.142 153.45 123.21 153.45 121.477C153.45 119.743 147.527 117.811 139.028 117.811V117.811Z" fill="#3F3D56"/>
<path d="M150.318 219.789C160.668 219.789 169.059 211.398 169.059 201.048C169.059 190.698 160.668 182.308 150.318 182.308C139.968 182.308 131.577 190.698 131.577 201.048C131.577 211.398 139.968 219.789 150.318 219.789Z" fill="#2F2E41"/>
<path d="M143.191 213.361L134.07 217.929L136.62 223.019L145.741 218.452L143.191 213.361Z" fill="#2F2E41"/>
<path d="M137.822 222.503C138.363 221.682 137.028 219.848 134.841 218.406C132.653 216.963 130.441 216.459 129.9 217.279C129.359 218.1 130.694 219.934 132.882 221.376C135.069 222.819 137.281 223.323 137.822 222.503Z" fill="#2F2E41"/>
<path d="M157.444 213.361L154.895 218.452L164.015 223.019L166.565 217.929L157.444 213.361Z" fill="#2F2E41"/>
<path d="M167.753 221.376C169.941 219.934 171.276 218.1 170.735 217.279C170.194 216.459 167.982 216.963 165.794 218.406C163.607 219.848 162.272 221.682 162.813 222.503C163.354 223.323 165.566 222.819 167.753 221.376Z" fill="#2F2E41"/>
<path d="M149.006 202.869C152.543 202.869 155.411 200.002 155.411 196.464C155.411 192.927 152.543 190.059 149.006 190.059C145.468 190.059 142.601 192.927 142.601 196.464C142.601 200.002 145.468 202.869 149.006 202.869Z" fill="white"/>
<path d="M150.564 195.236C151.394 194.406 151.389 193.055 150.553 192.219C149.717 191.383 148.366 191.378 147.536 192.208C146.705 193.038 146.71 194.389 147.546 195.226C148.382 196.062 149.733 196.067 150.564 195.236Z" fill="#3F3D56"/>
<path d="M165.101 180.66C165.383 173.722 159.404 167.846 151.746 167.535C144.087 167.224 137.651 172.596 137.369 179.534C137.087 186.472 142.411 188.048 150.069 188.359C157.727 188.671 164.82 187.598 165.101 180.66Z" fill="#fe5f1e"/>
<path d="M175.904 210.861C177.137 209.803 175.403 205.762 172.032 201.835C168.661 197.909 164.93 195.584 163.697 196.642C162.464 197.7 164.198 201.741 167.568 205.668C170.939 209.594 174.671 211.92 175.904 210.861Z" fill="#2F2E41"/>
<path d="M133.119 205.668C136.49 201.741 138.224 197.7 136.991 196.642C135.758 195.584 132.026 197.909 128.655 201.836C125.284 205.762 123.551 209.803 124.784 210.862C126.016 211.92 129.748 209.594 133.119 205.668Z" fill="#2F2E41"/>
<path d="M155.465 208.434C155.668 209.548 155.42 210.697 154.775 211.628C154.131 212.559 153.143 213.197 152.029 213.399C150.914 213.602 149.765 213.354 148.834 212.71C147.903 212.065 147.266 211.077 147.063 209.963L147.061 209.955C146.641 207.634 148.435 206.813 150.756 206.393C153.076 205.973 155.045 206.113 155.465 208.434Z" fill="white"/>
<path d="M118.656 220.983C118.42 220.983 118.193 220.889 118.025 220.722C117.858 220.555 117.764 220.328 117.764 220.091V167.454C117.764 167.218 117.858 166.991 118.025 166.823C118.193 166.656 118.42 166.562 118.656 166.562C118.893 166.562 119.12 166.656 119.287 166.823C119.454 166.991 119.548 167.218 119.548 167.454V220.091C119.548 220.328 119.454 220.555 119.287 220.722C119.12 220.889 118.893 220.983 118.656 220.983Z" fill="#CCCCCC"/>
<path d="M105.274 268.267C105.037 268.267 104.81 268.173 104.643 268.006C104.476 267.839 104.382 267.612 104.382 267.375V229.013C104.382 228.776 104.476 228.549 104.643 228.382C104.81 228.214 105.037 228.121 105.274 228.121C105.511 228.121 105.738 228.214 105.905 228.382C106.072 228.549 106.166 228.776 106.166 229.013V267.375C106.166 267.612 106.072 267.839 105.905 268.006C105.738 268.173 105.511 268.267 105.274 268.267V268.267Z" fill="#CCCCCC"/>
<path d="M139.622 236.596C139.385 236.596 139.158 236.502 138.991 236.335C138.824 236.167 138.73 235.94 138.729 235.704V183.067C138.729 182.83 138.823 182.603 138.991 182.436C139.158 182.269 139.385 182.175 139.622 182.175C139.858 182.175 140.085 182.269 140.252 182.436C140.42 182.603 140.514 182.83 140.514 183.067V235.704C140.514 235.94 140.42 236.167 140.252 236.335C140.085 236.502 139.858 236.596 139.622 236.596Z" fill="#CCCCCC"/>
<path d="M126.686 274.512C126.449 274.512 126.222 274.418 126.055 274.251C125.887 274.084 125.793 273.857 125.793 273.62V252.209C125.793 251.972 125.887 251.745 126.055 251.578C126.222 251.41 126.449 251.316 126.686 251.316C126.922 251.316 127.149 251.41 127.316 251.578C127.484 251.745 127.578 251.972 127.578 252.209V273.62C127.578 273.857 127.484 274.084 127.316 274.251C127.149 274.418 126.922 274.512 126.686 274.512V274.512Z" fill="#CCCCCC"/>
<path d="M144.975 164.778C144.738 164.778 144.511 164.684 144.344 164.516C144.177 164.349 144.083 164.122 144.083 163.886V142.474C144.083 142.237 144.176 142.01 144.344 141.843C144.511 141.676 144.738 141.582 144.975 141.582C145.211 141.582 145.438 141.676 145.606 141.843C145.773 142.01 145.867 142.237 145.867 142.474V163.886C145.867 164.122 145.773 164.349 145.606 164.516C145.438 164.684 145.211 164.778 144.975 164.778V164.778Z" fill="#CCCCCC"/>
<path d="M100.367 174.145C100.13 174.145 99.9032 174.051 99.7359 173.884C99.5686 173.717 99.4746 173.49 99.4746 173.253V151.842C99.4746 151.605 99.5686 151.378 99.7359 151.211C99.9032 151.043 100.13 150.949 100.367 150.949C100.603 150.949 100.83 151.043 100.998 151.211C101.165 151.378 101.259 151.605 101.259 151.842V173.253C101.259 173.49 101.165 173.717 100.998 173.884C100.83 174.051 100.603 174.145 100.367 174.145V174.145Z" fill="#CCCCCC"/>
<path d="M177.984 176.376C177.748 176.376 177.521 176.282 177.354 176.114C177.186 175.947 177.092 175.72 177.092 175.483V154.072C177.092 153.835 177.186 153.608 177.354 153.441C177.521 153.274 177.748 153.18 177.984 153.18C178.221 153.18 178.448 153.274 178.615 153.441C178.783 153.608 178.877 153.835 178.877 154.072V175.483C178.877 175.72 178.783 175.947 178.615 176.114C178.448 176.282 178.221 176.376 177.984 176.376Z" fill="#CCCCCC"/>
<path d="M176.2 243.287C175.963 243.287 175.736 243.193 175.569 243.026C175.402 242.858 175.308 242.631 175.308 242.395V216.522C175.308 216.286 175.402 216.059 175.569 215.892C175.736 215.724 175.963 215.63 176.2 215.63C176.436 215.63 176.663 215.724 176.831 215.892C176.998 216.059 177.092 216.286 177.092 216.522V242.395C177.092 242.631 176.998 242.858 176.831 243.026C176.663 243.193 176.436 243.287 176.2 243.287Z" fill="#CCCCCC"/>
<path d="M158.357 266.037C158.12 266.037 157.893 265.943 157.726 265.776C157.559 265.608 157.465 265.381 157.465 265.145V226.782C157.465 226.546 157.559 226.319 157.726 226.151C157.893 225.984 158.12 225.89 158.357 225.89C158.594 225.89 158.821 225.984 158.988 226.151C159.155 226.319 159.249 226.546 159.249 226.782V265.145C159.249 265.381 159.155 265.608 158.988 265.776C158.821 265.943 158.594 266.037 158.357 266.037Z" fill="#CCCCCC"/>
<path d="M161.925 200.464C161.689 200.464 161.462 200.37 161.295 200.202C161.127 200.035 161.033 199.808 161.033 199.572V146.935C161.033 146.698 161.127 146.471 161.294 146.304C161.462 146.136 161.689 146.042 161.925 146.042C162.162 146.042 162.389 146.136 162.556 146.304C162.723 146.471 162.818 146.698 162.818 146.935V199.572C162.817 199.808 162.723 200.035 162.556 200.202C162.389 200.37 162.162 200.464 161.925 200.464Z" fill="#CCCCCC"/>
<path d="M271.3 312.472C272.577 311.403 270.852 307.239 267.446 303.171C264.04 299.104 260.244 296.673 258.967 297.742C257.69 298.811 259.416 302.975 262.822 307.043C266.227 311.11 270.023 313.541 271.3 312.472Z" fill="#2F2E41"/>
<path d="M262.926 307.846C266.281 297.781 260.841 286.901 250.776 283.546C240.71 280.191 229.83 285.63 226.475 295.696C223.12 305.762 228.56 316.641 238.625 319.997C248.691 323.352 259.571 317.912 262.926 307.846Z" fill="#2F2E41"/>
<path d="M252.832 316.848H246.996V327.305H252.832V316.848Z" fill="#2F2E41"/>
<path d="M241.159 316.848H235.323V327.305H241.159V316.848Z" fill="#2F2E41"/>
<path d="M247.968 329.251C250.654 329.251 252.832 328.434 252.832 327.427C252.832 326.42 250.654 325.603 247.968 325.603C245.282 325.603 243.104 326.42 243.104 327.427C243.104 328.434 245.282 329.251 247.968 329.251Z" fill="#2F2E41"/>
<path d="M236.295 329.007C238.981 329.007 241.159 328.191 241.159 327.184C241.159 326.176 238.981 325.36 236.295 325.36C233.609 325.36 231.432 326.176 231.432 327.184C231.432 328.191 233.609 329.007 236.295 329.007Z" fill="#2F2E41"/>
<path d="M238.668 277.622C240.384 270.714 247.956 266.648 255.581 268.542C263.206 270.435 267.997 277.57 266.282 284.479C264.566 291.387 258.875 291.409 251.25 289.516C243.625 287.623 236.953 284.53 238.668 277.622Z" fill="#CCCCCC"/>
<path d="M231.741 296.973C232.455 295.469 229.148 292.406 224.354 290.133C219.561 287.859 215.097 287.236 214.383 288.741C213.669 290.246 216.977 293.308 221.77 295.582C226.563 297.855 231.027 298.478 231.741 296.973Z" fill="#2F2E41"/>
<path d="M241.828 304.123C245.366 304.123 248.233 301.255 248.233 297.718C248.233 294.18 245.366 291.313 241.828 291.313C238.291 291.313 235.423 294.18 235.423 297.718C235.423 301.255 238.291 304.123 241.828 304.123Z" fill="white"/>
<path d="M239.196 297.557C240.375 297.557 241.331 296.601 241.331 295.422C241.331 294.243 240.375 293.287 239.196 293.287C238.016 293.287 237.061 294.243 237.061 295.422C237.061 296.601 238.016 297.557 239.196 297.557Z" fill="#3F3D56"/>
<path d="M241.773 313.767C243.251 313.767 244.45 312.569 244.45 311.091C244.45 309.612 243.251 308.414 241.773 308.414C240.295 308.414 239.097 309.612 239.097 311.091C239.097 312.569 240.295 313.767 241.773 313.767Z" fill="white"/>
<path d="M299.554 329.38H194.28C194.162 329.38 194.048 329.333 193.965 329.249C193.881 329.165 193.834 329.052 193.834 328.934C193.834 328.815 193.881 328.702 193.965 328.618C194.048 328.534 194.162 328.488 194.28 328.488H299.554C299.672 328.488 299.786 328.534 299.869 328.618C299.953 328.702 300 328.815 300 328.934C300 329.052 299.953 329.165 299.869 329.249C299.786 329.333 299.672 329.38 299.554 329.38Z" fill="#3F3D56"/>
</g>
<defs>
<clipPath id="clip0_63487_524">
<rect width="300" height="329.38" fill="white"/>
</clipPath>
</defs>
</svg>
